<?xml version="1.0" encoding="UTF-8"?>
<!DOCTYPE svg PUBLIC "-//W3C//DTD SVG 1.1//EN" "http://www.w3.org/Graphics/SVG/1.1/DTD/svg11.dtd">
<!-- Creator: CorelDRAW X8 -->
<svg xmlns="http://www.w3.org/2000/svg" xml:space="preserve" width="186.844mm" height="48.879mm" version="1.1" style="shape-rendering:geometricPrecision; text-rendering:geometricPrecision; image-rendering:optimizeQuality; fill-rule:evenodd; clip-rule:evenodd"
viewBox="0 0 14941 3909"
 xmlns:xlink="http://www.w3.org/1999/xlink">
 <defs>
  <style type="text/css">
   <![CDATA[
    .fil3 {fill:none}
    .fil0 {fill:#EA3249}
    .fil1 {fill:#EA3249;fill-rule:nonzero}
    .fil2 {fill:white;fill-rule:nonzero}
   ]]>
  </style>
   <mask id="id0">
  <linearGradient id="id1" gradientUnits="userSpaceOnUse" x1="-5980.87" y1="608.344" x2="-6623.13" y2="268.43">
   <stop offset="0" style="stop-opacity:1; stop-color:white"/>
   <stop offset="1" style="stop-opacity:0; stop-color:white"/>
  </linearGradient>
    <rect style="fill:url(#id1)" x="583" y="583" width="2172" height="2742"/>
   </mask>
   <mask id="id2">
  <linearGradient id="id3" gradientUnits="userSpaceOnUse" x1="-15044.8" y1="156.37" x2="-20918.8" y2="-2739.67">
   <stop offset="0" style="stop-opacity:1; stop-color:white"/>
   <stop offset="1" style="stop-opacity:0; stop-color:white"/>
  </linearGradient>
    <rect style="fill:url(#id3)" width="3432" height="3909"/>
   </mask>
   <mask id="id4">
  <linearGradient id="id5" gradientUnits="userSpaceOnUse" x1="1507.24" y1="1418.72" x2="5167.63" y2="2043.17">
   <stop offset="0" style="stop-opacity:1; stop-color:white"/>
   <stop offset="1" style="stop-opacity:0; stop-color:white"/>
  </linearGradient>
    <rect style="fill:url(#id5)" x="2698" y="978" width="627" height="977"/>
   </mask>
 </defs>
 <g id="Слой_x0020_1">
  <metadata id="CorelCorpID_0Corel-Layer"/>
  <path class="fil0" style="mask:url(#id0)" d="M2655 776c-205,-122 -444,-193 -701,-193 -378,0 -721,154 -969,402 -248,248 -402,591 -402,969 0,379 154,722 402,970 248,248 591,401 969,401 257,0 496,-70 701,-192 108,-65 118,-175 79,-237 -33,-54 -90,-79 -184,-57 -34,7 -71,29 -119,54 -143,72 -305,113 -477,113 -290,0 -553,-117 -744,-308 -190,-190 -308,-453 -308,-744 0,-290 118,-553 308,-744 191,-190 454,-308 744,-308 172,0 334,41 477,114 48,24 85,46 119,54 94,22 151,-3 184,-57 39,-62 29,-173 -79,-237z"/>
  <path class="fil0" style="mask:url(#id2)" d="M3336 3336c-5,5 -10,11 -15,16 -353,344 -835,557 -1367,557 -539,0 -1028,-219 -1382,-573 -353,-353 -572,-842 -572,-1382 0,-539 219,-1028 572,-1382 354,-353 843,-572 1382,-572 532,0 1014,212 1367,557 5,5 10,10 15,15 22,22 39,43 53,62 65,87 51,181 -7,228 -56,45 -154,45 -223,-14 -18,-15 -32,-34 -48,-50 -296,-296 -705,-479 -1157,-479 -451,0 -860,183 -1156,479 -296,296 -479,705 -479,1156 0,452 183,861 479,1157 296,296 705,479 1156,479 452,0 861,-183 1157,-479 16,-16 30,-35 48,-50 69,-60 167,-59 223,-14 58,46 72,141 7,227 -14,20 -31,41 -53,62z"/>
  <path class="fil1" d="M12535 2507c0,27 -10,50 -30,70 -19,19 -43,29 -71,29 -28,0 -51,-10 -70,-29 -19,-20 -28,-43 -28,-70 0,-28 9,-51 28,-70 19,-20 42,-30 70,-30 28,0 52,10 71,30 20,19 30,42 30,70z"/>
  <path id="1" class="fil1" d="M12959 1898c97,0 180,35 248,103 17,18 24,40 23,66 -2,25 -11,46 -29,62 -17,17 -40,26 -67,27 -27,1 -50,-8 -67,-27 -30,-27 -67,-40 -108,-40 -23,0 -44,4 -64,13 -20,10 -38,22 -53,37 -15,15 -27,32 -35,52 -9,19 -14,40 -14,61 0,23 5,44 14,64 8,20 20,37 36,53 16,15 33,27 53,35 19,9 40,13 63,12 42,0 79,-13 108,-39 17,-20 40,-30 67,-30 27,0 50,10 67,30 9,7 16,17 21,27 5,11 7,22 8,34 0,12 -1,23 -5,34 -4,12 -10,22 -18,30 -34,34 -71,60 -112,78 -41,17 -87,26 -136,26 -49,0 -95,-9 -138,-28 -43,-19 -80,-45 -112,-77 -33,-32 -58,-70 -77,-113 -19,-43 -29,-88 -29,-136 0,-46 10,-91 29,-134 19,-43 45,-81 77,-113 33,-32 71,-58 114,-77 42,-20 88,-30 136,-30z"/>
  <path id="2" class="fil1" d="M13657 1897c48,0 94,9 136,28 43,18 81,44 113,76 32,32 58,70 77,112 19,43 28,90 28,139 0,49 -9,95 -27,137 -19,42 -44,80 -76,112 -31,32 -69,57 -112,76 -43,18 -89,28 -139,28 -48,0 -94,-9 -137,-27 -43,-17 -80,-42 -113,-73 -32,-32 -57,-69 -76,-112 -18,-43 -27,-90 -27,-141 0,-48 9,-94 27,-136 18,-43 43,-80 74,-112 32,-31 69,-57 113,-76 43,-19 90,-29 139,-31zm0 192c-22,0 -43,4 -62,12 -20,8 -37,20 -52,34 -15,15 -27,32 -36,52 -9,20 -13,42 -13,65 0,23 4,44 13,64 9,20 21,37 36,53 15,15 32,27 52,35 19,9 40,14 62,14 23,0 44,-5 64,-14 20,-8 37,-20 52,-35 15,-16 26,-33 35,-53 9,-20 13,-41 13,-64 -2,-45 -18,-83 -48,-114 -30,-31 -69,-48 -116,-49z"/>
  <path id="3" class="fil1" d="M14355 1898c29,0 58,5 85,14 28,10 54,24 77,43 47,-38 102,-57 164,-57 34,0 67,7 99,20 31,13 59,31 83,54 24,22 43,49 57,80 14,31 21,64 21,99l0 367c0,24 -10,44 -29,62 -20,17 -42,26 -67,26 -26,0 -48,-9 -67,-28 -19,-19 -28,-42 -28,-67l0 -355c0,-19 -7,-34 -20,-47 -13,-13 -30,-19 -49,-19 -17,0 -32,6 -46,17 -14,11 -21,27 -21,49l0 355c0,26 -10,49 -29,67 -19,19 -41,28 -68,28 -24,0 -46,-8 -66,-25 -19,-18 -29,-38 -29,-63l0 -362c-1,-20 -8,-36 -22,-48 -13,-12 -29,-18 -45,-18 -19,0 -34,6 -48,19 -13,13 -20,29 -21,48l0 363c-2,23 -12,43 -30,61 -18,17 -40,25 -65,25 -13,0 -26,-2 -38,-7 -12,-5 -22,-12 -31,-21 -8,-8 -15,-19 -21,-30 -5,-12 -7,-24 -6,-37l0 -360c0,-34 6,-66 20,-97 14,-31 32,-57 56,-80 23,-23 51,-41 82,-55 32,-14 66,-21 102,-21z"/>
  <path class="fil2" d="M1955 1298c88,0 172,17 251,51 79,34 148,81 208,140 59,60 106,129 142,208 35,79 52,165 52,256 0,90 -17,175 -51,253 -34,78 -81,147 -139,206 -59,60 -127,107 -207,141 -79,34 -164,51 -256,51 -90,0 -175,-16 -254,-49 -79,-32 -148,-77 -208,-136 -59,-58 -106,-127 -140,-206 -34,-80 -51,-166 -51,-260 0,-89 16,-174 50,-252 33,-78 79,-147 137,-205 59,-59 128,-105 208,-140 80,-35 166,-55 258,-58zm0 353c-41,0 -80,8 -116,23 -36,15 -68,37 -96,64 -28,27 -50,58 -66,95 -16,37 -24,77 -24,120 0,42 8,81 24,118 16,37 38,69 66,97 28,28 60,50 96,66 36,16 75,25 116,25 41,0 80,-9 117,-25 37,-16 69,-38 96,-66 27,-28 49,-60 65,-97 16,-37 24,-76 24,-118 -3,-82 -33,-152 -89,-210 -56,-58 -127,-88 -213,-92zm1946 -351c47,0 87,17 122,52 34,37 51,78 51,121 0,49 -17,90 -51,124 -9,9 -18,18 -27,27 -9,9 -18,18 -27,27 -101,101 -201,201 -301,301 -100,100 -201,200 -304,301l537 0c45,2 86,20 122,54 34,38 51,80 51,127 0,43 -17,84 -51,121 -38,35 -79,52 -122,52l-8 0 -880 0 -67 0 -8 0c-47,0 -88,-17 -122,-52 -36,-36 -53,-76 -51,-121 -4,-49 12,-89 48,-122l659 -661 -526 0 -8 0c-49,-3 -90,-21 -122,-54 -38,-34 -55,-75 -51,-124 -2,-45 15,-85 51,-121 32,-35 73,-52 122,-52l963 0zm1361 8c46,20 80,52 99,96 20,44 20,90 0,136l-391 953c-9,20 -28,44 -58,72 -30,28 -65,42 -107,42 -36,0 -70,-9 -102,-26 -33,-17 -56,-46 -70,-88l-397 -953c-20,-46 -20,-92 0,-136 20,-44 53,-76 100,-96 47,-18 92,-17 137,3 45,20 78,53 98,100l229 518 227 -518c20,-47 52,-80 98,-100 46,-20 92,-21 137,-3zm426 -10c47,0 88,17 124,52 36,35 54,78 54,128l0 475c0,42 8,81 25,118 16,37 37,69 64,96 27,27 59,48 96,65 37,16 76,24 118,24 39,0 77,-7 113,-22 36,-14 68,-34 96,-59 28,-25 50,-56 66,-92 16,-36 24,-75 24,-116l0 -491c0,-45 17,-86 51,-122 35,-36 76,-55 125,-56 48,0 90,17 125,52 35,35 54,74 55,118l0 485c0,90 -17,175 -51,254 -34,79 -81,149 -140,208 -60,59 -129,106 -208,140 -79,35 -165,52 -256,52 -87,3 -170,-12 -249,-45 -79,-33 -149,-79 -209,-137 -60,-59 -108,-127 -144,-206 -36,-78 -54,-160 -54,-247l0 -496c0,-47 16,-88 50,-123 33,-35 75,-54 125,-55zm1933 2c180,0 333,63 459,189 30,34 44,75 42,122 -3,46 -21,85 -53,116 -33,30 -74,47 -124,48 -51,2 -92,-14 -124,-48 -56,-51 -123,-76 -200,-76 -42,0 -81,9 -118,26 -37,17 -69,39 -97,67 -28,28 -50,60 -66,96 -16,36 -24,74 -24,113 0,42 8,81 24,118 16,37 39,69 68,97 28,28 61,50 97,66 36,16 74,24 116,22 79,0 146,-24 200,-73 32,-36 73,-54 124,-54 50,0 91,18 124,54 16,14 29,31 38,51 9,20 14,41 15,62 0,22 -3,43 -10,64 -7,20 -18,39 -32,55 -63,63 -133,111 -208,143 -76,33 -159,49 -251,49 -90,0 -175,-18 -254,-53 -79,-35 -148,-82 -208,-142 -59,-59 -106,-128 -142,-207 -35,-80 -52,-163 -52,-252 0,-86 17,-169 52,-248 36,-79 83,-148 144,-208 60,-59 130,-107 209,-143 79,-36 163,-54 251,-54zm842 -407c47,0 87,16 120,48 33,33 52,75 55,127l0 311c42,-27 90,-46 146,-57 56,-11 109,-16 159,-16 89,0 172,16 251,48 80,33 149,78 208,135 60,58 107,125 142,203 35,77 53,160 53,248l0 494c0,49 -17,90 -50,124 -34,34 -75,52 -126,54 -47,0 -86,-16 -119,-47 -32,-32 -52,-72 -59,-120l0 -486c0,-40 -8,-78 -23,-115 -15,-37 -36,-69 -63,-97 -27,-28 -59,-50 -95,-66 -36,-16 -75,-24 -119,-24 -81,0 -149,27 -206,83 -57,56 -90,124 -99,205l0 489c0,49 -16,90 -50,124 -33,34 -75,52 -125,54 -45,0 -83,-16 -115,-47 -31,-32 -51,-72 -60,-120l0 -1388c3,-45 21,-83 52,-116 32,-32 73,-48 123,-48zm2297 1406c36,36 54,79 54,128 0,50 -18,92 -54,128 -36,33 -78,50 -127,53 -48,3 -92,-15 -129,-53l-408 -404 0 275c0,47 -18,88 -54,125 -36,37 -78,56 -127,56 -47,0 -89,-18 -127,-53 -37,-35 -56,-78 -56,-128l0 -1363c0,-47 18,-89 54,-126 36,-37 79,-55 129,-55 51,0 93,17 128,52 35,36 53,78 53,129l0 677 408 -407c36,-36 78,-54 127,-53 48,1 91,18 129,53 36,36 54,78 54,128 0,49 -18,92 -54,128l-356 356 356 354zm883 -996c81,9 157,32 228,70 71,38 132,86 183,145 52,58 92,125 122,199 30,75 44,154 44,236l0 478c0,49 -18,90 -54,124 -36,35 -76,52 -121,52 -63,0 -98,-19 -126,-50 -31,-32 -52,-79 -52,-141l0 -458 0 0 0 -5c0,-39 -8,-77 -25,-114 -16,-37 -38,-70 -66,-97 -28,-28 -60,-50 -97,-67 -37,-16 -75,-24 -115,-24 -39,0 -77,8 -113,24 -36,17 -68,39 -96,67 -28,27 -50,60 -66,97 -16,37 -24,75 -24,114 0,42 8,81 25,118 18,37 40,69 68,96 28,27 60,48 96,65 36,16 73,24 110,24 20,0 108,-3 153,40 130,121 41,310 -150,311 -135,0 -255,-37 -362,-110 -106,-72 -185,-167 -237,-282 -18,-41 -32,-83 -42,-127 -10,-43 -15,-88 -15,-135 0,-46 5,-91 15,-134 10,-44 24,-86 42,-127 52,-117 131,-212 237,-284 107,-72 227,-108 362,-108 15,0 28,0 39,0 12,0 24,1 37,3z"/>
  <path class="fil3" style="mask:url(#id4)" d="M3325 1954l-319 0c0,-290 -117,-553 -308,-744l218 -232"/>
  <circle class="fil0" cx="1954" cy="1954" r="137"/>
  <circle class="fil0" cx="6168" cy="1954" r="104"/>
  <circle class="fil0" cx="7617" cy="1954" r="104"/>
  <circle class="fil0" cx="8941" cy="1954" r="104"/>
  <circle class="fil0" cx="11564" cy="1954" r="104"/>
 </g>
</svg>
